<svg width="46" height="47" viewBox="0 0 46 47" fill="none" xmlns="http://www.w3.org/2000/svg">
<path d="M39 23.5V44H7V23.5M23 44V13.25M23 13.25H14C12.6739 13.25 11.4021 12.71 10.4645 11.7489C9.52678 10.7878 9 9.48423 9 8.125C9 6.76577 9.52678 5.4622 10.4645 4.50108C11.4021 3.53995 12.6739 3 14 3C21 3 23 13.25 23 13.25ZM23 13.25H32C33.3261 13.25 34.5979 12.71 35.5355 11.7489C36.4732 10.7878 37 9.48423 37 8.125C37 6.76577 36.4732 5.4622 35.5355 4.50108C34.5979 3.53995 33.3261 3 32 3C25 3 23 13.25 23 13.25ZM3 13.25H43V23.5H3V13.25Z" stroke="white" stroke-width="4.78254" stroke-linecap="round" stroke-linejoin="round"/>
</svg>
