<svg width="25" height="24" viewBox="0 0 25 24" fill="none" xmlns="http://www.w3.org/2000/svg">
<path d="M12.4997 0.333374C6.05967 0.333374 0.833008 5.56004 0.833008 12C0.833008 18.44 6.05967 23.6667 12.4997 23.6667C18.9397 23.6667 24.1663 18.44 24.1663 12C24.1663 5.56004 18.9397 0.333374 12.4997 0.333374ZM12.4997 21.3334C7.35468 21.3334 3.16634 17.145 3.16634 12C3.16634 6.85504 7.35468 2.66671 12.4997 2.66671C17.6447 2.66671 21.833 6.85504 21.833 12C21.833 17.145 17.6447 21.3334 12.4997 21.3334ZM17.0263 7.67171L10.1663 14.5317L7.97301 12.3384C7.75487 12.1202 7.45901 11.9977 7.15051 11.9977C6.84201 11.9977 6.54615 12.1202 6.32801 12.3384C6.10987 12.5565 5.98732 12.8524 5.98732 13.1609C5.98732 13.4694 6.10987 13.7652 6.32801 13.9834L9.34968 17.005C9.80468 17.46 10.5397 17.46 10.9947 17.005L18.683 9.31671C18.7912 9.20878 18.877 9.08057 18.9355 8.93944C18.9941 8.7983 19.0242 8.647 19.0242 8.49421C19.0242 8.34141 18.9941 8.19011 18.9355 8.04898C18.877 7.90784 18.7912 7.77964 18.683 7.67171C18.228 7.21671 17.4813 7.21671 17.0263 7.67171Z" fill="#FF8F40"/>
</svg>
