<svg width="350" height="64" viewBox="0 0 350 64" fill="none" xmlns="http://www.w3.org/2000/svg">
<g clip-path="url(#clip0_1363_1335)">
<path fill-rule="evenodd" clip-rule="evenodd" d="M54.2978 63.5428C52.7048 61.4857 52.7503 57.7828 51.2939 55.6342C46.3329 56.0914 41.3264 55.4057 40.4161 52.1599C40.0065 50.7885 40.8712 48.7314 40.4161 47.0399C40.052 45.6228 38.0494 44.7542 38.0949 43.5657C38.1404 42.5142 39.0962 41.9199 39.961 41.6914C37.0481 40.8685 38.1859 38.0342 38.5955 35.8857C37.2301 35.1085 34.3173 35.8399 33.498 34.4685C33.6801 29.6228 40.3706 26.8799 40.0065 22.1256C39.8699 20.3885 37.7308 19.6114 37.4577 17.9199C37.1846 16.2285 37.9128 13.6685 38.368 12.1142C38.9597 10.1028 40.234 8.1828 40.6892 5.85137C40.052 3.93137 38.3225 2.69708 39.0507 0.0456543H15.4746C16.2028 2.69708 14.4733 3.93137 13.8361 5.85137C14.2913 8.22851 15.5656 10.1028 16.1573 12.1142C16.6125 13.7142 17.3862 16.2285 17.0676 17.9199C16.7945 19.6114 14.6554 20.3885 14.5188 22.1256C14.1092 26.8799 20.8452 29.6228 21.0273 34.4685C20.208 35.7942 17.2952 35.0628 15.9297 35.8857C16.3394 38.0342 17.4772 40.8685 14.5643 41.6914C15.4291 41.9199 16.3394 42.5142 16.4304 43.5657C16.5214 44.7999 14.4733 45.6228 14.1092 47.0399C13.6541 48.7314 14.5188 50.7885 14.1092 52.1599C13.1534 55.4057 8.19243 56.0914 3.23144 55.6342C1.775 57.7828 1.775 61.4857 0.227539 63.5428H54.2978Z" fill="white"/>
<path d="M64.1748 31.8632C64.1748 30.3089 64.5844 29.166 65.4492 28.3889C66.3139 27.6575 67.4518 27.2917 68.8172 27.2917H71.1839L71.9121 29.9432H69.5454C68.8172 29.9432 68.2255 30.126 67.8614 30.446C67.4973 30.766 67.2697 31.3603 67.2697 32.1375C67.2697 32.6403 67.3608 33.1432 67.5428 33.6003C67.7249 34.1032 67.9979 34.5603 68.3621 34.9717C68.7262 35.3832 69.1813 35.7032 69.7275 35.9775C70.2736 36.206 70.9108 36.3432 71.639 36.3432C71.8211 36.3432 71.9576 36.3432 72.0032 36.3432L71.2749 38.9489H70.7288C69.773 38.9489 68.8627 38.766 68.0435 38.3546C67.2242 37.9432 66.496 37.4403 65.9498 36.7546C65.3582 36.0689 64.903 35.2917 64.5844 34.4689C64.3113 33.6003 64.1748 32.7317 64.1748 31.8632Z" fill="white"/>
<path d="M80.0593 27.2917L80.742 29.9432H76.0541V31.6803H80.3324L79.6497 34.286H76.0996V36.3432H81.1061L80.4234 38.9489H73.0957V27.2917H80.0593Z" fill="white"/>
<path d="M91.3479 27.2917V38.9489H88.2985V35.5203L85.1125 31.5889H85.067V38.9489H82.0176V27.2917H84.8849L88.2985 31.2689V27.2917H91.3479Z" fill="white"/>
<path d="M100.996 27.2917L101.678 29.9432H98.4469V38.9946H95.3975V29.9432H92.166L92.8942 27.2917H100.996Z" fill="white"/>
<path d="M102.359 29.9432V27.2917H108.14C108.913 27.2917 109.551 27.4289 110.097 27.7032C110.643 27.9775 111.007 28.3432 111.28 28.8003C111.553 29.2575 111.69 29.7603 111.69 30.3546C111.69 31.0403 111.508 31.6803 111.098 32.2746C110.688 32.8689 110.051 33.4632 109.186 34.0575C109.687 35.0175 110.188 35.8403 110.643 36.526C111.098 37.2117 111.735 38.0346 112.554 39.0403L110.006 40.7775C109.505 40.1832 109.004 39.5432 108.549 38.9032C108.094 38.2632 107.684 37.5775 107.275 36.8917C106.865 36.206 106.547 35.6117 106.274 35.0632C106 34.5146 105.773 34.0117 105.545 33.5546C105.909 33.2803 106.274 33.006 106.683 32.7318C107.093 32.4575 107.411 32.1375 107.73 31.7717C108.049 31.406 108.185 31.086 108.185 30.7203C108.185 30.4003 108.049 30.1717 107.821 30.126C107.593 30.0346 107.229 29.9889 106.774 29.9889H102.359V29.9432ZM102.359 38.9489V29.7603H105.409V38.9489H102.359Z" fill="white"/>
<path d="M112.602 31.7256C112.602 30.7199 112.784 29.8513 113.148 29.1656C113.512 28.4799 114.058 27.9313 114.877 27.6113C115.651 27.2456 116.698 27.0627 117.927 27.0627C118.746 27.0627 119.52 27.1542 120.157 27.337C120.794 27.5199 121.34 27.7942 121.795 28.1599C122.25 28.5256 122.569 29.0285 122.797 29.6227C123.024 30.217 123.161 30.9485 123.161 31.7713C123.161 32.5942 123.07 33.417 122.842 34.3313C122.615 35.1999 122.296 36.0227 121.841 36.7999C121.386 37.577 120.84 38.1713 120.157 38.6285C119.474 39.0856 118.746 39.3142 117.881 39.3142C117.107 39.3142 116.379 39.1313 115.742 38.6742C115.105 38.2627 114.513 37.7142 114.058 36.9827C113.603 36.2513 113.239 35.4742 113.011 34.5599C112.693 33.5999 112.602 32.6399 112.602 31.7256ZM115.879 31.9542C115.879 32.5942 115.97 33.2799 116.152 33.9656C116.334 34.6513 116.561 35.1999 116.88 35.657C117.198 36.1142 117.517 36.297 117.836 36.297C118.245 36.297 118.609 36.0685 118.928 35.5656C119.247 35.0627 119.474 34.5142 119.656 33.8285C119.838 33.1427 119.884 32.5027 119.884 31.9542C119.884 31.177 119.702 30.6285 119.338 30.2627C118.973 29.9427 118.518 29.7599 117.927 29.7599C117.244 29.7599 116.743 29.9427 116.425 30.2627C116.015 30.6285 115.879 31.177 115.879 31.9542Z" fill="white"/>
<path d="M129.533 38.9485V29.76H132.582V36.2971C133.31 36.2514 133.948 36.0228 134.494 35.5657C135.04 35.1542 135.45 34.6057 135.723 33.9657C135.996 33.3257 136.132 32.6857 136.132 32.0914C136.132 31.5885 136.041 31.1314 135.859 30.8114C135.677 30.4914 135.45 30.2628 135.131 30.08C134.812 29.9428 134.403 29.8514 133.902 29.8514H129.487V27.2H134.585C135.541 27.2 136.36 27.3828 137.043 27.7485C137.725 28.1142 138.271 28.6171 138.636 29.3028C139 29.9885 139.182 30.8114 139.227 31.8171C139.227 32.6857 139.091 33.5542 138.772 34.3771C138.453 35.1999 137.998 35.9771 137.361 36.6628C136.724 37.3485 135.996 37.8971 135.085 38.2628C134.175 38.6742 133.128 38.8571 131.991 38.8571H129.533V38.9485Z" fill="white"/>
<path d="M147.556 27.2917L148.239 29.9432H143.551V31.6803H147.829L147.101 34.286H143.551V36.3432H148.557L147.875 38.9489H140.547V27.2917H147.556Z" fill="white"/>
<path d="M161.663 27.2917L162.346 29.9432H157.658V31.6803H161.936L161.208 34.286H157.658V36.3432H162.665L161.982 38.9489H154.654V27.2917H161.663Z" fill="white"/>
<path d="M163.213 36.3429H165.989C166.399 36.3429 166.672 36.3429 166.854 36.2972C167.036 36.2514 167.127 36.16 167.127 35.9772C167.127 35.8857 167.081 35.7486 167.036 35.6572C166.99 35.5657 166.899 35.4743 166.763 35.3372C166.672 35.2 166.581 35.1543 166.581 35.1543L164.533 32.8229C164.214 32.5029 163.986 32.1829 163.804 31.9543C163.622 31.68 163.44 31.4057 163.304 31.0857C163.167 30.7657 163.076 30.4 163.076 30.0343C163.076 29.5314 163.213 29.0743 163.44 28.6629C163.668 28.2514 164.032 27.9314 164.487 27.7029C164.942 27.4743 165.534 27.3372 166.217 27.3372H169.494L170.222 29.9886H167.628C167.218 29.9886 166.945 30.0343 166.763 30.0343C166.581 30.08 166.49 30.1714 166.49 30.3543C166.49 30.4457 166.535 30.5829 166.581 30.6743C166.626 30.7657 166.763 30.9486 166.99 31.1772L169.129 33.5543C169.585 34.0114 169.903 34.4686 170.176 34.88C170.449 35.2914 170.54 35.7943 170.54 36.3429C170.54 36.8 170.449 37.1657 170.313 37.5314C170.176 37.8514 169.949 38.1257 169.676 38.3543C169.403 38.5829 169.084 38.72 168.674 38.8572C168.31 38.9486 167.901 39.04 167.4 39.04H163.85L163.213 36.3429Z" fill="white"/>
<path d="M179.642 27.2917L180.325 29.9432H177.093V38.9946H174.044V29.9432H170.812L171.541 27.2917H179.642Z" fill="white"/>
<path d="M180.144 34.1489C180.144 33.3717 180.235 32.5946 180.417 31.8632C180.599 31.086 180.826 30.3546 181.145 29.6232C181.418 28.8918 181.782 28.1146 182.192 27.2917H185.469C185.332 27.6117 185.15 28.0232 184.877 28.526C184.649 29.0289 184.422 29.6232 184.149 30.2175C183.921 30.8575 183.694 31.4975 183.512 32.1832C183.33 32.8689 183.238 33.5089 183.238 34.1032C183.238 34.6518 183.33 35.1089 183.512 35.4289C183.694 35.7489 183.967 35.9775 184.285 36.1146C184.604 36.2517 185.014 36.3432 185.469 36.3432H186.561V27.2917H189.61V38.9489H184.695C183.102 38.9489 181.919 38.5375 181.19 37.6689C180.508 36.8003 180.144 35.6117 180.144 34.1489Z" fill="white"/>
<path d="M191.341 38.9485V29.76H194.39V36.2971C195.118 36.2514 195.756 36.0228 196.302 35.5657C196.848 35.1542 197.258 34.6057 197.531 33.9657C197.804 33.3257 197.94 32.6857 197.94 32.0914C197.94 31.5885 197.849 31.1314 197.667 30.8114C197.485 30.4914 197.258 30.2628 196.939 30.08C196.62 29.9428 196.211 29.8514 195.71 29.8514H191.341V27.2H196.438C197.394 27.2 198.213 27.3828 198.896 27.7485C199.579 28.1142 200.125 28.6171 200.489 29.3028C200.853 29.9885 201.035 30.8114 201.081 31.8171C201.081 32.6857 200.944 33.5542 200.626 34.3771C200.307 35.1999 199.852 35.9771 199.215 36.6628C198.577 37.3485 197.849 37.8971 196.939 38.2628C196.029 38.6742 194.982 38.8571 193.844 38.8571H191.341V38.9485Z" fill="white"/>
<path d="M201.81 31.7256C201.81 30.7199 201.992 29.8513 202.356 29.1656C202.72 28.4799 203.266 27.9313 204.04 27.6113C204.813 27.2456 205.86 27.0627 207.089 27.0627C207.908 27.0627 208.682 27.1542 209.319 27.337C209.957 27.5199 210.503 27.7942 210.958 28.1599C211.413 28.5256 211.732 29.0285 211.959 29.6227C212.187 30.217 212.323 30.9485 212.323 31.7713C212.323 32.5942 212.232 33.417 212.005 34.3313C211.777 35.1999 211.458 36.0227 211.003 36.7999C210.548 37.577 210.002 38.1713 209.319 38.6285C208.637 39.0856 207.908 39.3142 207.044 39.3142C206.27 39.3142 205.542 39.1313 204.904 38.6742C204.267 38.2627 203.676 37.7142 203.22 36.9827C202.765 36.2513 202.401 35.4742 202.174 34.5599C201.946 33.5999 201.81 32.6399 201.81 31.7256ZM205.087 31.9542C205.087 32.5942 205.178 33.2799 205.36 33.9656C205.542 34.6513 205.769 35.1999 206.088 35.657C206.406 36.1142 206.725 36.297 207.044 36.297C207.453 36.297 207.817 36.0685 208.136 35.5656C208.455 35.0627 208.682 34.5142 208.864 33.8285C209.046 33.1427 209.092 32.5027 209.092 31.9542C209.092 31.177 208.91 30.6285 208.546 30.2627C208.181 29.9427 207.726 29.7599 207.135 29.7599C206.452 29.7599 205.951 29.9427 205.633 30.2627C205.269 30.6285 205.087 31.177 205.087 31.9542Z" fill="white"/>
<path d="M213.232 36.3429H216.008C216.418 36.3429 216.691 36.3429 216.873 36.2972C217.055 36.2514 217.146 36.16 217.146 35.9772C217.146 35.8857 217.1 35.7486 217.055 35.6572C217.009 35.5657 216.918 35.4743 216.827 35.3372C216.736 35.2 216.645 35.1543 216.645 35.1543L214.597 32.8229C214.278 32.5029 214.051 32.1829 213.869 31.9543C213.687 31.68 213.505 31.4057 213.368 31.0857C213.232 30.7657 213.141 30.4 213.141 30.0343C213.141 29.5314 213.277 29.0743 213.505 28.6629C213.732 28.2514 214.096 27.9314 214.552 27.7029C215.007 27.4743 215.598 27.3372 216.281 27.3372H219.558L220.286 29.9886H217.692C217.282 29.9886 217.009 30.0343 216.827 30.0343C216.645 30.08 216.554 30.1714 216.554 30.3543C216.554 30.4457 216.6 30.5829 216.645 30.6743C216.691 30.7657 216.827 30.9486 217.055 31.1772L219.194 33.5543C219.649 34.0114 219.968 34.4686 220.241 34.88C220.514 35.2914 220.605 35.7943 220.605 36.3429C220.605 36.8 220.514 37.1657 220.377 37.5314C220.241 37.8514 220.013 38.1257 219.74 38.3543C219.467 38.5829 219.148 38.72 218.739 38.8572C218.375 38.9486 217.965 39.04 217.51 39.04H213.914L213.232 36.3429Z" fill="white"/>
<path d="M227.978 38.9482V29.8054H231.027V36.3425C231.755 36.2968 232.438 36.0682 232.984 35.6111C233.53 35.1996 233.94 34.6511 234.213 34.0111C234.486 33.3711 234.623 32.7311 234.623 32.1368C234.623 31.6339 234.532 31.1768 234.349 30.8568C234.167 30.5368 233.94 30.3082 233.621 30.1254C233.303 29.9882 232.893 29.8968 232.392 29.8968H227.978V27.2454H233.075C234.031 27.2454 234.85 27.4282 235.533 27.7939C236.215 28.1596 236.762 28.6625 237.126 29.3482C237.49 30.0339 237.672 30.8568 237.717 31.8625C237.717 32.7311 237.581 33.5996 237.262 34.4225C236.944 35.2454 236.489 36.0225 235.851 36.7082C235.214 37.3939 234.486 37.9425 233.576 38.3082C232.665 38.7196 231.619 38.9025 230.481 38.9025H227.978V38.9482Z" fill="white"/>
<path d="M240.175 40.5943C239.674 39.8629 239.265 38.9943 238.901 38.0343C238.537 37.0286 238.354 35.9772 238.354 34.8343C238.354 34.1486 238.446 33.4172 238.628 32.6857C238.81 31.9543 239.083 31.2229 239.492 30.4914C239.902 29.76 240.448 29.1657 241.131 28.6629C241.814 28.16 242.496 27.7943 243.27 27.6114C243.998 27.4286 244.999 27.3372 246.137 27.3372H247.867V29.9886H246.001C245.182 29.9886 245.045 29.9886 244.226 30.2172C243.68 30.3543 243.224 30.6286 242.769 31.04C242.36 31.4514 241.996 32 241.768 32.7314H244.772V29.8972H247.821V39.0857H244.863V35.3829H241.54C241.54 35.9772 241.631 36.6629 241.905 37.3029C242.132 37.9886 242.405 38.5829 242.724 39.0857L240.175 40.5943Z" fill="white"/>
<path d="M254.148 31.8624C254.148 30.3082 254.558 29.1653 255.423 28.3882C256.288 27.6567 257.425 27.291 258.791 27.291H261.158L261.886 29.9424H259.519C258.791 29.9424 258.199 30.1253 257.835 30.4453C257.471 30.7653 257.289 31.3596 257.289 32.1367C257.289 32.6396 257.38 33.1424 257.562 33.5996C257.744 34.1024 258.017 34.5596 258.381 34.971C258.745 35.3824 259.2 35.7024 259.747 35.9767C260.293 36.2053 260.93 36.3424 261.658 36.3424C261.84 36.3424 261.977 36.3424 262.068 36.3424L261.34 38.9482H260.793C259.838 38.9482 258.927 38.7653 258.108 38.3539C257.289 37.9424 256.561 37.4396 256.014 36.7539C255.423 36.0682 254.968 35.291 254.649 34.4682C254.33 33.5996 254.148 32.731 254.148 31.8624Z" fill="white"/>
<path d="M262.476 31.7256C262.476 30.7199 262.658 29.8513 263.022 29.1656C263.386 28.4799 263.932 27.9313 264.751 27.6113C265.525 27.2456 266.572 27.0627 267.801 27.0627C268.62 27.0627 269.394 27.1542 270.031 27.337C270.668 27.5199 271.214 27.7942 271.669 28.1599C272.124 28.5256 272.443 29.0285 272.671 29.6227C272.898 30.217 273.035 30.9485 273.035 31.7713C273.035 32.5942 272.944 33.417 272.716 34.3313C272.489 35.1999 272.17 36.0227 271.715 36.7999C271.26 37.577 270.714 38.1713 270.031 38.6285C269.348 39.0856 268.62 39.3142 267.755 39.3142C266.981 39.3142 266.253 39.1313 265.616 38.6742C264.979 38.2627 264.387 37.7142 263.932 36.9827C263.477 36.2513 263.113 35.4742 262.885 34.5599C262.612 33.5999 262.476 32.6399 262.476 31.7256ZM265.753 31.9542C265.753 32.5942 265.844 33.2799 266.026 33.9656C266.208 34.6513 266.435 35.1999 266.754 35.657C267.072 36.1142 267.391 36.297 267.71 36.297C268.119 36.297 268.483 36.0685 268.802 35.5656C269.121 35.0627 269.348 34.5142 269.53 33.8285C269.712 33.1427 269.758 32.5027 269.758 31.9542C269.758 31.177 269.576 30.6285 269.212 30.2627C268.847 29.9427 268.392 29.7599 267.801 29.7599C267.118 29.7599 266.617 29.9427 266.299 30.2627C265.935 30.6285 265.753 31.177 265.753 31.9542Z" fill="white"/>
<path d="M283.777 27.291V38.9482H280.727V35.5196L277.541 31.5882H277.496V38.9482H274.446V27.291H277.314L280.727 31.2682V27.291H283.777Z" fill="white"/>
<path d="M285.279 36.3429H288.055C288.465 36.3429 288.738 36.3429 288.92 36.2972C289.102 36.2514 289.193 36.16 289.193 35.9772C289.193 35.8857 289.148 35.7486 289.102 35.6572C289.057 35.5657 288.966 35.4743 288.829 35.3372C288.738 35.2 288.647 35.1543 288.647 35.1543L286.599 32.8229C286.28 32.5029 286.053 32.1829 285.871 31.9543C285.689 31.68 285.507 31.4057 285.37 31.0857C285.234 30.7657 285.143 30.4 285.143 30.0343C285.143 29.5314 285.279 29.0743 285.507 28.6629C285.734 28.2514 286.098 27.9314 286.553 27.7029C287.009 27.4743 287.6 27.3372 288.283 27.3372H291.56L292.288 29.9886H289.694C289.284 29.9886 289.011 30.0343 288.829 30.0343C288.647 30.08 288.556 30.1714 288.556 30.3543C288.556 30.4457 288.602 30.5829 288.647 30.6743C288.693 30.7657 288.829 30.9486 289.057 31.1772L291.196 33.5543C291.651 34.0114 291.97 34.4686 292.243 34.88C292.516 35.2914 292.607 35.7943 292.607 36.3429C292.607 36.8 292.516 37.1657 292.379 37.5314C292.243 37.8514 292.015 38.1257 291.742 38.3543C291.469 38.5829 291.15 38.72 290.741 38.8572C290.377 38.9486 289.967 39.04 289.466 39.04H285.916L285.279 36.3429Z" fill="white"/>
<path d="M293.152 31.8624C293.152 30.3082 293.562 29.1653 294.427 28.3882C295.292 27.6567 296.429 27.291 297.795 27.291H300.161L300.89 29.9424H298.523C297.795 29.9424 297.203 30.1253 296.839 30.4453C296.475 30.7653 296.293 31.3596 296.293 32.1367C296.293 32.6396 296.384 33.1424 296.566 33.5996C296.748 34.1024 297.021 34.5596 297.385 34.971C297.749 35.3824 298.204 35.7024 298.751 35.9767C299.297 36.2053 299.934 36.3424 300.662 36.3424C300.844 36.3424 300.981 36.3424 301.026 36.3424L300.298 38.9482H299.752C298.751 38.9482 297.886 38.7653 297.067 38.3539C296.247 37.9424 295.519 37.4396 294.973 36.7539C294.381 36.0682 293.926 35.291 293.607 34.4682C293.289 33.5996 293.152 32.731 293.152 31.8624Z" fill="white"/>
<path d="M305.122 27.291V38.9482H302.072V27.291H305.122Z" fill="white"/>
<path d="M314.135 27.2911L314.818 29.9426H310.13V31.6797H314.408L313.68 34.2854H310.13V36.3426H315.136L314.454 38.9483H307.126V27.2911H314.135ZM311.723 24.2283L313.134 26.4226H311.177L310.676 25.554L310.175 26.4226H308.264L309.629 24.2283H311.723Z" fill="white"/>
<path d="M325.378 27.291V38.9482H322.329V35.5196L319.143 31.5882H319.097V38.9482H316.048V27.291H318.915L322.329 31.2682V27.291H325.378Z" fill="white"/>
<path d="M326.788 31.8624C326.788 30.3082 327.198 29.1653 328.062 28.3882C328.927 27.6567 330.065 27.291 331.43 27.291H333.797L334.525 29.9424H332.159C331.43 29.9424 330.839 30.1253 330.475 30.4453C330.111 30.7653 329.929 31.3596 329.929 32.1367C329.929 32.6396 330.02 33.1424 330.202 33.5996C330.384 34.1024 330.657 34.5596 331.021 34.971C331.385 35.3824 331.84 35.7024 332.386 35.9767C332.932 36.2053 333.57 36.3424 334.298 36.3424C334.48 36.3424 334.616 36.3424 334.662 36.3424L333.934 38.9482H333.388C332.386 38.9482 331.521 38.7653 330.702 38.3539C329.883 37.9424 329.155 37.4396 328.609 36.7539C328.017 36.0682 327.562 35.291 327.243 34.4682C326.97 33.5996 326.788 32.731 326.788 31.8624Z" fill="white"/>
<path d="M338.938 27.291V38.9482H335.889V27.291H338.938Z" fill="white"/>
<path d="M342.125 40.5943C341.625 39.8629 341.215 38.9943 340.851 38.0343C340.487 37.0286 340.305 35.9772 340.305 34.8343C340.305 34.1486 340.396 33.4172 340.578 32.6857C340.76 31.9543 341.033 31.2229 341.443 30.4914C341.852 29.76 342.398 29.1657 343.081 28.6629C343.764 28.16 344.446 27.7943 345.22 27.6114C345.948 27.4286 346.95 27.3372 348.088 27.3372H349.817V29.9886H347.951C347.314 29.9886 346.722 30.08 346.176 30.2172C345.63 30.3543 345.175 30.6286 344.72 31.04C344.31 31.4514 343.946 32 343.718 32.7314H346.722V29.8972H349.772V39.0857H346.722V35.3829H343.4C343.4 35.9772 343.491 36.6629 343.764 37.3029C343.991 37.9886 344.264 38.5829 344.583 39.0857L342.125 40.5943Z" fill="white"/>
<path d="M64.2656 61.9885H349.181" stroke="white" stroke-width="2.94928" stroke-miterlimit="10"/>
<path d="M64.2656 58.3315H349.181" stroke="white" stroke-width="1.68531" stroke-miterlimit="10"/>
</g>
<defs>
<clipPath id="clip0_1363_1335">
<rect width="350" height="64" fill="white"/>
</clipPath>
</defs>
</svg>
