<svg width="29" height="36" viewBox="0 0 29 36" fill="none" xmlns="http://www.w3.org/2000/svg">
<path d="M14.2056 35.1031L14.2045 35.1024C13.9609 34.9306 10.7104 32.5991 7.5282 28.8326C4.33606 25.0543 1.29409 19.9286 1.29395 14.1545C1.29803 10.612 2.69262 7.21741 5.16934 4.71487C7.64571 2.21269 11.0015 0.806548 14.5002 0.802308C17.9989 0.806548 21.3547 2.21269 23.831 4.71487C26.3079 7.21751 27.7025 10.6123 27.7064 14.1549C27.7062 19.9289 24.6643 25.0544 21.4722 28.8326C18.29 32.5991 15.0395 34.9306 14.7959 35.1024L14.7948 35.1031C14.7077 35.1648 14.6049 35.1973 14.5002 35.1973C14.3955 35.1973 14.2927 35.1648 14.2056 35.1031ZM17.7394 9.26876C16.7813 8.6219 15.654 8.27614 14.5002 8.27614C12.9528 8.27614 11.4703 8.89733 10.3786 10.0005C9.28703 11.1034 8.67519 12.5976 8.67519 14.1541C8.67519 15.3149 9.01583 16.4502 9.6549 17.4167C10.294 18.3831 11.2033 19.1376 12.2685 19.5835C13.3339 20.0293 14.5066 20.1461 15.6381 19.9187C16.7695 19.6913 17.8077 19.1302 18.6218 18.3076C19.4359 17.4851 19.9894 16.438 20.2136 15.2993C20.4377 14.1606 20.3227 12.9803 19.8828 11.9072C19.4429 10.834 18.6974 9.91556 17.7394 9.26876Z" stroke="#373737" stroke-width="1.5"/>
</svg>
