<svg width="14" height="12" viewBox="0 0 14 12" fill="none" xmlns="http://www.w3.org/2000/svg">
<path d="M8.40677 0.650505L13.3742 5.61789C13.4755 5.71923 13.5324 5.85668 13.5324 6C13.5324 6.14332 13.4755 6.28077 13.3742 6.38211L8.40677 11.3495C8.30543 11.4508 8.16799 11.5078 8.02467 11.5078C7.88135 11.5078 7.7439 11.4508 7.64256 11.3495C7.54122 11.2482 7.48429 11.1107 7.48429 10.9674C7.48429 10.8241 7.54122 10.6866 7.64256 10.5853L11.6876 6.5402L0.764639 6.54068C0.621241 6.54068 0.483717 6.48372 0.382319 6.38232C0.280922 6.28092 0.223957 6.1434 0.223957 6C0.223957 5.8566 0.280922 5.71908 0.382319 5.61768C0.483717 5.51628 0.621241 5.45932 0.764639 5.45932L11.6876 5.4598L7.64256 1.41472C7.54122 1.31338 7.48429 1.17593 7.48429 1.03261C7.48429 0.889294 7.54122 0.751846 7.64256 0.650505C7.7439 0.549164 7.88135 0.492231 8.02467 0.492231C8.16799 0.492231 8.30543 0.549164 8.40677 0.650505Z" fill="#1D1D60"/>
</svg>
