<svg width="78" height="78" viewBox="0 0 78 78" fill="none" xmlns="http://www.w3.org/2000/svg">
<rect width="77.5821" height="77.5821" rx="38.791" fill="#00A92F"/>
<path d="M38.7903 18.7852C35.3159 18.7849 31.9013 19.6895 28.8827 21.4099C25.8642 23.1303 23.3457 25.6072 21.5753 28.5968C19.8048 31.5863 18.8435 34.9854 18.7859 38.4593C18.7284 41.9333 19.5766 45.3623 21.247 48.4088L19.6119 54.1797C19.4593 54.7056 19.4508 55.2627 19.5871 55.793C19.7233 56.3233 19.9995 56.8073 20.3866 57.1945C20.7738 57.5816 21.2578 57.8578 21.7881 57.994C22.3184 58.1303 22.8755 58.1218 23.4014 57.9692L29.1723 56.3341C31.8466 57.7999 34.8207 58.6349 37.8672 58.7752C40.9137 58.9155 43.952 58.3574 46.7497 57.1436C49.5475 55.9299 52.0308 54.0925 54.0097 51.772C55.9886 49.4515 57.4107 46.7092 58.1675 43.7549C58.9242 40.8005 58.9955 37.7123 58.3759 34.7262C57.7563 31.7401 56.4622 28.9351 54.5924 26.5258C52.7227 24.1164 50.3269 22.1664 47.5881 20.8248C44.8493 19.4832 41.8401 18.7856 38.7903 18.7852ZM38.7903 55.7186C35.7516 55.7158 32.7692 54.8988 30.1533 53.3525C29.9119 53.218 29.6409 53.1453 29.3646 53.1409C29.2216 53.1411 29.0793 53.1605 28.9414 53.1987L22.555 55.0261L24.3824 48.6397C24.4387 48.4376 24.454 48.2263 24.4276 48.0182C24.4012 47.8102 24.3335 47.6094 24.2286 47.4278C22.3229 44.2157 21.5331 40.4635 21.9821 36.7558C22.4311 33.048 24.0937 29.5928 26.7109 26.9284C29.3281 24.264 32.7531 22.5399 36.4522 22.0248C40.1514 21.5096 43.917 22.2322 47.1627 24.0802C50.4083 25.9281 52.9517 28.7975 54.3967 32.2415C55.8417 35.6855 56.1071 39.5107 55.1517 43.1212C54.1962 46.7318 52.0736 49.925 49.1142 52.2035C46.1549 54.482 42.5252 55.7179 38.7903 55.7186ZM48.8893 41.6954L44.9459 39.4448C44.4736 39.173 43.937 39.0332 43.3921 39.0399C42.8473 39.0467 42.3143 39.1998 41.8489 39.4833L39.5598 40.849C38.392 40.1623 37.4188 39.1891 36.7321 38.0213L38.0978 35.7322C38.3813 35.2668 38.5344 34.7338 38.5412 34.189C38.5479 33.6441 38.4081 33.1075 38.1363 32.6352L35.8857 28.6918C35.6354 28.2544 35.2742 27.8907 34.8386 27.6374C34.4029 27.3841 33.9081 27.2502 33.4042 27.2491C31.5709 27.2491 29.8124 27.976 28.5143 29.2706C27.2161 30.5651 26.4843 32.3216 26.4792 34.1549C26.4792 38.6462 28.262 42.9538 31.4361 46.1314C34.6101 49.3091 38.9157 51.0968 43.407 51.1019H43.4262C45.2595 51.0968 47.016 50.365 48.3105 49.0668C49.6051 47.7687 50.332 46.0102 50.332 44.1769C50.3309 43.673 50.197 43.1782 49.9437 42.7425C49.6904 42.3069 49.3267 41.9457 48.8893 41.6954ZM43.4262 48.0241C41.6042 48.0267 39.7996 47.6696 38.1157 46.9735C36.4319 46.2774 34.9019 45.2559 33.6135 43.9676C32.3252 42.6792 31.3037 41.1492 30.6076 39.4654C29.9115 37.7815 29.5544 35.9769 29.557 34.1549C29.5567 33.1561 29.9467 32.1967 30.644 31.4815C31.3412 30.7663 32.2903 30.3519 33.2888 30.3269L35.4625 34.1549L33.6543 37.1557C33.5291 37.3697 33.4568 37.6105 33.4435 37.8581C33.4301 38.1057 33.476 38.3529 33.5773 38.5792C34.6494 40.9981 36.583 42.9317 39.0019 44.0038C39.2282 44.1051 39.4754 44.151 39.723 44.1376C39.9706 44.1243 40.2114 44.052 40.4254 43.9268L43.4262 42.1186L47.2542 44.2923C47.2291 45.2908 46.8148 46.2399 46.0996 46.9371C45.3844 47.6344 44.425 48.0244 43.4262 48.0241Z" fill="white"/>
</svg>
