<svg width="42" height="42" viewBox="0 0 42 42" fill="none" xmlns="http://www.w3.org/2000/svg">
<path d="M32.7298 24.3153L26.4298 21.1653C26.1818 21.0417 25.9056 20.9857 25.6291 21.003C25.3525 21.0203 25.0855 21.1102 24.8548 21.2637L21.9627 23.1931C20.6351 22.4633 19.5425 21.3707 18.8127 20.0431L20.7421 17.151C20.8956 16.9203 20.9855 16.6532 21.0028 16.3767C21.0201 16.1002 20.9641 15.824 20.8405 15.576L17.6905 9.276C17.5599 9.01232 17.3581 8.79049 17.1079 8.63565C16.8578 8.48081 16.5692 8.39914 16.275 8.3999C14.1864 8.3999 12.1834 9.22959 10.7065 10.7064C9.22966 12.1833 8.39998 14.1863 8.39998 16.2749C8.40519 20.8682 10.2322 25.2718 13.4801 28.5198C16.728 31.7677 21.1317 33.5947 25.725 33.5999C26.7591 33.5999 27.7832 33.3962 28.7386 33.0005C29.6941 32.6047 30.5622 32.0246 31.2934 31.2934C32.0247 30.5621 32.6048 29.694 33.0005 28.7385C33.3963 27.7831 33.6 26.7591 33.6 25.7249C33.6002 25.4323 33.5189 25.1454 33.3652 24.8964C33.2115 24.6475 32.9915 24.4462 32.7298 24.3153ZM25.725 30.4499C21.9668 30.4457 18.3638 28.951 15.7063 26.2935C13.0489 23.6361 11.5541 20.0331 11.55 16.2749C11.5497 15.1825 11.9279 14.1237 12.6203 13.2787C13.3127 12.4338 14.2765 11.8549 15.3477 11.6405L17.6078 16.1686L15.6844 19.0312C15.5406 19.2468 15.4523 19.4945 15.4272 19.7524C15.4022 20.0103 15.4411 20.2704 15.5406 20.5097C16.6675 23.1879 18.7982 25.3186 21.4764 26.4455C21.7164 26.5494 21.9785 26.592 22.239 26.5693C22.4995 26.5466 22.7503 26.4594 22.9687 26.3155L25.8451 24.398L30.3732 26.6581C30.1571 27.7305 29.5757 28.6947 28.728 29.3862C27.8803 30.0777 26.8189 30.4537 25.725 30.4499ZM21 0.524903C17.465 0.524131 13.9901 1.43858 10.9134 3.17923C7.83669 4.91988 5.26306 7.42744 3.443 10.4578C1.62294 13.4882 0.618456 16.9382 0.527316 20.472C0.436175 24.0058 1.26149 27.503 2.92291 30.6232L0.688383 37.3267C0.50329 37.8818 0.476429 38.4774 0.61081 39.0468C0.745191 39.6162 1.0355 40.137 1.44921 40.5507C1.86291 40.9644 2.38366 41.2547 2.95309 41.3891C3.52252 41.5235 4.11812 41.4966 4.67313 41.3115L11.3767 39.077C14.1227 40.5375 17.1653 41.3532 20.2736 41.4623C23.3819 41.5714 26.4741 40.9709 29.3157 39.7064C32.1573 38.442 34.6734 36.5468 36.6732 34.1647C38.673 31.7826 40.1038 28.9763 40.857 25.9587C41.6103 22.941 41.6662 19.7915 41.0205 16.7491C40.3747 13.7066 39.0444 10.8513 37.1304 8.39974C35.2164 5.94821 32.7691 3.96494 29.9741 2.60047C27.1792 1.23599 24.1102 0.526179 21 0.524903ZM21 38.3249C17.9543 38.327 14.962 37.5249 12.3257 35.9998C12.1326 35.8879 11.918 35.8182 11.6961 35.7955C11.4741 35.7727 11.2498 35.7974 11.0381 35.8679L3.67498 38.3249L6.13001 30.9618C6.20078 30.7502 6.22579 30.526 6.20339 30.304C6.18099 30.0821 6.11169 29.8674 6.00007 29.6742C4.09033 26.3724 3.32357 22.5327 3.81875 18.7507C4.31393 14.9687 6.04337 11.4558 8.73878 8.75702C11.4342 6.05821 14.9449 4.32433 18.7263 3.82438C22.5076 3.32442 26.3483 4.08632 29.6525 5.99189C32.9567 7.89747 35.5396 10.8402 37.0007 14.3635C38.4618 17.8869 38.7193 21.794 37.7332 25.4786C36.7472 29.1632 34.5728 32.4195 31.5473 34.7422C28.5217 37.0649 24.8143 38.3243 21 38.3249Z" fill="#00A92F"/>
</svg>
